<?xml version="1.0" encoding="UTF-8" standalone="no"?>
<!-- Created with Inkscape (http://www.inkscape.org/) -->

<svg
   width="164.95334mm"
   height="16.876602mm"
   viewBox="0 0 164.95334 16.876602"
   version="1.1"
   id="svg5"
   xml:space="preserve"
   xmlns:inkscape="http://www.inkscape.org/namespaces/inkscape"
   xmlns:sodipodi="http://sodipodi.sourceforge.net/DTD/sodipodi-0.dtd"
   xmlns="http://www.w3.org/2000/svg"
   xmlns:svg="http://www.w3.org/2000/svg"><sodipodi:namedview
     id="namedview7"
     pagecolor="#505050"
     bordercolor="#eeeeee"
     borderopacity="1"
     inkscape:showpageshadow="0"
     inkscape:pageopacity="0"
     inkscape:pagecheckerboard="0"
     inkscape:deskcolor="#505050"
     inkscape:document-units="mm"
     showgrid="false" /><defs
     id="defs2"><clipPath
       clipPathUnits="userSpaceOnUse"
       id="clipPath1250"><path
         d="M 0,566.929 H 566.929 V 0 H 0 Z"
         id="path1248" /></clipPath></defs><g
     id="g1240"
     transform="matrix(0.35277776,0,0,-0.35277778,6.9218448,9.7130326)"
     style="fill:#000000;fill-opacity:1"
     inkscape:export-filename=".\logos.svg"
     inkscape:export-xdpi="96"
     inkscape:export-ydpi="96"><path
       d="M 0,0 -3.639,10.074 -7.305,0 Z m -1.556,18.065 13.741,-37.95 H 7.227 L 1.504,-4.114 H -8.808 l -5.829,-15.771 h -4.984 l 13.925,37.95 z"
       style="fill:#000000;fill-opacity:1;fill-rule:nonzero;stroke:none"
       id="path1242" /></g><g
     id="g1244"
     transform="matrix(0.35277776,0,0,-0.35277778,-17.523355,80.416193)"
     style="fill:#000000;fill-opacity:1"><g
       id="g1246"
       clip-path="url(#clipPath1250)"
       style="fill:#000000;fill-opacity:1"><g
         id="g1252"
         transform="translate(100.2442,184.6733)"
         style="fill:#000000;fill-opacity:1"><path
           d="m 0,0 c 2.198,0 4.119,0.821 5.763,2.466 1.644,1.644 2.466,3.688 2.466,6.132 0,2.443 -0.822,4.492 -2.466,6.145 C 4.119,16.396 2.198,17.222 0,17.222 H -6.91 V 0 Z m -6.91,29.697 v -8.335 h 7.649 c 1.037,0.105 1.837,0.449 2.4,1.03 0.773,0.755 1.16,1.766 1.16,3.033 0,1.229 -0.404,2.249 -1.213,3.058 -0.809,0.809 -1.723,1.214 -2.743,1.214 z M 9.363,17.512 c 2.461,-2.461 3.692,-5.433 3.692,-8.914 0,-3.447 -1.275,-6.444 -3.824,-8.993 C 7.174,-2.471 4.571,-3.719 1.424,-4.14 H -11.683 V 33.811 H 0.37 c 2.479,0 4.553,-0.835 6.223,-2.505 1.671,-1.671 2.506,-3.632 2.506,-5.881 0,-2.27 -0.817,-4.212 -2.452,-5.829 0.58,-0.142 1.485,-0.836 2.716,-2.084"
           style="fill:#000000;fill-opacity:1;fill-rule:nonzero;stroke:none"
           id="path1254" /></g><g
         id="g1256"
         transform="translate(126.4488,214.3159)"
         style="fill:#000000;fill-opacity:1"><path
           d="m 0,0 v -17.194 h 4.695 c 2.215,0 4.149,0.821 5.801,2.465 1.653,1.645 2.48,3.697 2.48,6.159 0,2.444 -0.827,4.482 -2.48,6.118 C 8.844,-0.815 6.91,0 4.695,0 Z M 4.457,-21.361 H 0 V -33.782 H -4.773 V 4.168 H 6.093 c 3.164,-0.422 5.81,-1.705 7.937,-3.851 2.479,-2.479 3.719,-5.441 3.719,-8.887 0,-3.464 -1.275,-6.47 -3.824,-9.019 -1.688,-1.707 -3.182,-2.718 -4.483,-3.034 l 8.518,-13.159 h -5.512 z"
           style="fill:#000000;fill-opacity:1;fill-rule:nonzero;stroke:none"
           id="path1258" /></g><g
         id="g1260"
         transform="translate(169.8214,200.4184)"
         style="fill:#000000;fill-opacity:1"><path
           d="M 0,0 -3.639,10.074 -7.305,0 Z m -1.556,18.065 13.741,-37.95 H 7.227 L 1.503,-4.114 H -8.808 l -5.829,-15.771 h -4.984 l 13.924,37.95 z"
           style="fill:#000000;fill-opacity:1;fill-rule:nonzero;stroke:none"
           id="path1262" /></g><g
         id="g1264"
         transform="translate(205.7305,200.4184)"
         style="fill:#000000;fill-opacity:1"><path
           d="M 0,0 -3.639,10.074 -7.306,0 Z m -5.512,23.128 c -0.036,-0.386 -0.052,-1.063 -0.052,-2.03 l -4.405,0.95 c 0.034,1.248 0.132,2.11 0.29,2.584 0.404,1.231 1.16,2.074 2.268,2.532 0.387,0.176 0.818,0.264 1.292,0.264 1.038,0 2.224,-0.485 3.561,-1.451 0.245,-0.176 0.448,-0.315 0.606,-0.422 0.018,0.386 0.026,1.047 0.026,1.978 L 2.531,26.662 C 2.461,25.397 2.347,24.527 2.188,24.052 1.802,22.822 1.037,21.96 -0.105,21.467 c -0.423,-0.141 -0.836,-0.21 -1.24,-0.21 -1.038,0 -2.233,0.483 -3.587,1.45 -0.229,0.176 -0.422,0.316 -0.58,0.421 m 3.955,-5.063 13.742,-37.95 H 7.226 L 1.503,-4.114 H -8.809 l -5.828,-15.771 h -4.985 l 13.925,37.95 z"
           style="fill:#000000;fill-opacity:1;fill-rule:nonzero;stroke:none"
           id="path1266" /></g><g
         id="g1268"
         transform="translate(243.4073,214.8442)"
         style="fill:#000000;fill-opacity:1"><path
           d="m 0,0 c -4.044,0 -7.542,-1.481 -10.497,-4.443 -2.954,-2.963 -4.43,-6.572 -4.43,-10.826 0,-4.291 1.476,-7.913 4.43,-10.867 2.955,-2.953 6.453,-4.429 10.497,-4.429 4.062,0 7.569,1.476 10.522,4.429 2.955,2.954 4.431,6.576 4.431,10.867 0,4.254 -1.476,7.863 -4.431,10.826 C 7.569,-1.481 4.062,0 0,0 m 14.017,-1.583 c 3.824,-3.832 5.736,-8.395 5.736,-13.686 0,-5.328 -1.912,-9.905 -5.736,-13.728 -3.824,-3.824 -8.496,-5.735 -14.017,-5.735 -5.503,0 -10.167,1.911 -13.991,5.735 -3.824,3.823 -5.736,8.4 -5.736,13.728 0,5.291 1.912,9.854 5.736,13.686 3.824,3.834 8.488,5.751 13.991,5.751 5.521,0 10.193,-1.917 14.017,-5.751"
           style="fill:#000000;fill-opacity:1;fill-rule:nonzero;stroke:none"
           id="path1270" /></g><g
         id="g1272"
         transform="translate(323.2955,218.4838)"
         style="fill:#000000;fill-opacity:1"><path
           d="M 0,0 V -37.95 H -4.774 V -7.094 L -17.247,-23.473 -29.748,-7.094 V -37.95 h -4.773 V 0 h 5.089 L -17.247,-15.955 -5.091,0 Z"
           style="fill:#000000;fill-opacity:1;fill-rule:nonzero;stroke:none"
           id="path1274" /></g><g
         id="g1276"
         transform="translate(351.1617,214.8442)"
         style="fill:#000000;fill-opacity:1"><path
           d="m 0,0 c -4.044,0 -7.543,-1.481 -10.498,-4.443 -2.953,-2.963 -4.43,-6.572 -4.43,-10.826 0,-4.291 1.477,-7.913 4.43,-10.867 2.955,-2.953 6.454,-4.429 10.498,-4.429 4.061,0 7.569,1.476 10.522,4.429 2.954,2.954 4.43,6.576 4.43,10.867 0,4.254 -1.476,7.863 -4.43,10.826 C 7.569,-1.481 4.061,0 0,0 m 14.016,-1.583 c 3.825,-3.832 5.737,-8.395 5.737,-13.686 0,-5.328 -1.912,-9.905 -5.737,-13.728 -3.824,-3.824 -8.495,-5.735 -14.016,-5.735 -5.504,0 -10.167,1.911 -13.991,5.735 -3.825,3.823 -5.738,8.4 -5.738,13.728 0,5.291 1.913,9.854 5.738,13.686 3.824,3.834 8.487,5.751 13.991,5.751 5.521,0 10.192,-1.917 14.016,-5.751"
           style="fill:#000000;fill-opacity:1;fill-rule:nonzero;stroke:none"
           id="path1278" /></g><g
         id="g1280"
         transform="translate(384.3257,214.3159)"
         style="fill:#000000;fill-opacity:1"><path
           d="m 0,0 v -17.194 h 4.696 c 2.215,0 4.149,0.821 5.802,2.465 1.652,1.645 2.479,3.697 2.479,6.159 0,2.444 -0.827,4.482 -2.479,6.118 C 8.845,-0.815 6.911,0 4.696,0 Z M 4.457,-21.361 H 0 V -33.782 H -4.771 V 4.168 H 6.093 c 3.165,-0.422 5.812,-1.705 7.939,-3.851 2.479,-2.479 3.718,-5.441 3.718,-8.887 0,-3.464 -1.274,-6.47 -3.823,-9.019 -1.689,-1.707 -3.184,-2.718 -4.485,-3.034 l 8.519,-13.159 h -5.513 z"
           style="fill:#000000;fill-opacity:1;fill-rule:nonzero;stroke:none"
           id="path1282" /></g><g
         id="g1284"
         transform="translate(431.7086,218.4838)"
         style="fill:#000000;fill-opacity:1"><path
           d="M 0,0 V -4.141 H -15.877 V -16.905 H 0 v -4.141 H -15.877 V -33.811 H 0 V -37.95 H -20.649 V 0 Z"
           style="fill:#000000;fill-opacity:1;fill-rule:nonzero;stroke:none"
           id="path1286" /></g><path
         d="m 446.704,180.534 h -4.773 v 37.95 h 4.773 z"
         style="fill:#000000;fill-opacity:1;fill-rule:nonzero;stroke:none"
         id="path1288" /><g
         id="g1290"
         transform="translate(461.6988,214.3159)"
         style="fill:#000000;fill-opacity:1"><path
           d="m 0,0 v -17.194 h 4.695 c 2.215,0 4.15,0.821 5.802,2.465 1.652,1.645 2.48,3.697 2.48,6.159 0,2.444 -0.828,4.482 -2.48,6.118 C 8.845,-0.815 6.91,0 4.695,0 Z M 4.457,-21.361 H 0 V -33.782 H -4.772 V 4.168 H 6.093 c 3.165,-0.422 5.811,-1.705 7.938,-3.851 2.479,-2.479 3.719,-5.441 3.719,-8.887 0,-3.464 -1.275,-6.47 -3.824,-9.019 -1.688,-1.707 -3.184,-2.718 -4.484,-3.034 l 8.518,-13.159 h -5.512 z"
           style="fill:#000000;fill-opacity:1;fill-rule:nonzero;stroke:none"
           id="path1292" /></g><g
         id="g1294"
         transform="translate(505.0728,200.4184)"
         style="fill:#000000;fill-opacity:1"><path
           d="M 0,0 -3.639,10.074 -7.306,0 Z m -1.557,18.065 13.741,-37.95 H 7.226 L 1.504,-4.114 H -8.809 l -5.829,-15.771 h -4.983 l 13.925,37.95 z"
           style="fill:#000000;fill-opacity:1;fill-rule:nonzero;stroke:none"
           id="path1296" /></g></g></g></svg>
